<svg width="1200" height="800" viewBox="0 0 1200 800" fill="none" xmlns="http://www.w3.org/2000/svg">
  <rect width="1200" height="800" rx="24" fill="#F8FAFC"/>
  <rect x="160" y="70" width="880" height="660" rx="20" fill="white" stroke="#CBD5E1" stroke-width="4"/>
  <rect x="210" y="120" width="240" height="34" rx="8" fill="#0F172A"/>
  <rect x="760" y="120" width="220" height="34" rx="8" fill="#DBEAFE"/>
  <rect x="210" y="190" width="220" height="20" rx="8" fill="#94A3B8"/>
  <rect x="210" y="225" width="310" height="20" rx="8" fill="#94A3B8"/>
  <rect x="210" y="260" width="300" height="20" rx="8" fill="#94A3B8"/>
  <rect x="210" y="330" width="780" height="2" fill="#CBD5E1"/>
  <rect x="210" y="360" width="780" height="2" fill="#CBD5E1"/>
  <rect x="210" y="390" width="780" height="2" fill="#CBD5E1"/>
  <rect x="210" y="420" width="780" height="2" fill="#CBD5E1"/>
  <rect x="210" y="450" width="780" height="2" fill="#CBD5E1"/>
  <rect x="210" y="480" width="780" height="2" fill="#CBD5E1"/>
  <rect x="210" y="540" width="300" height="28" rx="8" fill="#DCFCE7"/>
  <rect x="760" y="540" width="230" height="46" rx="10" fill="#22C55E"/>
  <text x="875" y="572" text-anchor="middle" fill="white" font-family="Arial, sans-serif" font-size="24">Closing Balance</text>
  <text x="600" y="700" text-anchor="middle" fill="#334155" font-family="Arial, sans-serif" font-size="26">Upload a recent statement with name, date, and balance visible</text>
</svg>
